<svg version="1.1" id="Layer_1" xmlns="http://www.w3.org/2000/svg" xmlns:xlink="http://www.w3.org/1999/xlink" x="0px" y="0px"
	 width="100%" viewBox="0 0 500 500" enable-background="new 0 0 500 500" xml:space="preserve">
<!-- <path fill="none" opacity="1.000000" stroke="none" 
	d="
M277.000000,501.000000 
	C186.000015,501.000000 95.500015,500.975189 5.000193,501.095795 
	C1.576119,501.100342 0.903036,500.423828 0.905301,497.000000 
	C1.013778,333.000092 1.013756,169.000122 0.905337,5.000247 
	C0.903074,1.576946 1.575794,0.903021 4.999876,0.905286 
	C168.999756,1.013775 332.999725,1.013761 496.999634,0.905353 
	C500.422668,0.903091 501.096985,1.575430 501.094727,4.999757 
	C500.986206,168.999634 500.986237,332.999603 501.094604,496.999512 
	C501.096893,500.422272 500.425629,501.102325 497.000275,501.096375 
	C423.833679,500.969360 350.666809,501.000000 277.000000,501.000000 
z"/> -->
<path fill="#FECF65" opacity="1.000000" stroke="none" 
	d="
M351.692200,169.860413 
	C357.269501,176.205109 362.386108,182.732742 365.927521,190.644867 
	C364.853882,194.650803 366.199310,198.239502 366.186554,201.880554 
	C366.070526,234.977448 366.094635,268.074951 366.157349,301.172180 
	C366.163055,304.175964 365.535248,307.114410 365.809113,310.553284 
	C363.510834,317.940155 359.217743,323.812927 354.688660,329.462311 
	C353.081085,331.467590 351.508545,333.494598 349.665649,335.759094 
	C346.001251,334.530457 346.057495,331.524139 345.933167,328.596283 
	C345.844055,326.497772 345.976379,324.399353 345.812073,321.858032 
	C345.594055,320.598480 345.256287,319.694733 345.577423,318.967560 
	C348.848663,311.560242 347.832306,303.793030 347.729767,295.641449 
	C349.152435,291.309265 348.854706,287.282074 348.858826,283.296967 
	C348.894684,248.474060 348.844421,213.651077 348.914642,178.828247 
	C348.920868,175.751831 348.228088,172.375015 351.692200,169.860413 
z"/>
<path fill="#FD74B6" opacity="1.000000" stroke="none" 
	d="
M150.156677,332.206360 
	C145.033920,326.885864 141.480286,320.845734 137.906403,314.422729 
	C136.902023,308.474152 136.847275,302.831146 136.854843,297.169403 
	C136.896713,265.884552 136.884201,234.599594 136.865067,203.314682 
	C136.862122,198.488846 136.794601,193.667450 137.903778,188.431305 
	C142.418289,178.992355 148.348770,171.097855 155.441650,163.636383 
	C158.367447,164.324860 158.891800,166.519943 158.995758,168.873062 
	C159.160629,172.604919 159.217438,176.341888 158.847351,180.499847 
	C158.556900,183.762695 158.513504,186.938370 156.268539,188.805710 
	C149.785004,194.198624 150.878448,201.479431 150.730972,208.524918 
	C150.593124,215.110306 151.987732,221.350967 154.822083,227.673004 
	C152.517181,235.489624 153.378372,243.200745 153.248337,250.768295 
	C152.816238,275.915039 153.577255,301.073334 152.750702,326.220093 
	C152.677628,328.443298 153.197113,331.030823 150.156677,332.206360 
z"/>
<path fill="#FEBE74" opacity="1.000000" stroke="none" 
	d="
M309.766968,135.833313 
	C315.601044,137.764450 320.062897,141.185379 324.921509,144.486511 
	C326.664948,147.429932 327.137268,150.318939 327.134888,153.374130 
	C327.114105,180.115036 327.152344,206.856003 327.095947,233.596893 
	C327.091095,235.907715 327.263336,238.270081 325.867981,240.823242 
	C322.664703,244.338852 319.914703,242.384476 317.854614,240.346390 
	C313.646698,236.183380 309.721619,231.709122 306.476807,226.170914 
	C305.795135,224.117630 305.900574,222.439728 305.898254,220.784790 
	C305.862427,195.337204 305.836700,169.889511 305.919556,144.442078 
	C305.930145,141.195404 305.399109,137.594742 309.766968,135.833313 
z"/>
<path fill="#FECA6A" opacity="1.000000" stroke="none" 
	d="
M352.060425,169.363007 
	C350.831146,171.959503 350.996582,174.469757 350.996887,176.961044 
	C351.001404,213.336075 350.991943,249.711121 351.013245,286.086151 
	C351.015198,289.433655 350.841858,292.709198 348.769043,295.939301 
	C346.817749,295.785431 345.993256,294.507568 345.465179,293.130188 
	C342.875793,286.376373 339.944183,279.771729 336.988617,273.174683 
	C336.449310,271.970886 336.256683,270.650909 336.473267,268.862061 
	C335.140991,234.107712 336.181030,199.789154 335.914368,165.477859 
	C335.889435,162.270844 336.182434,159.142548 338.868774,156.341980 
	C344.244415,159.726257 347.874817,164.614471 352.060425,169.363007 
z"/>
<path fill="#FD6EBB" opacity="1.000000" stroke="none" 
	d="
M137.690308,188.150909 
	C138.885422,189.612045 139.010483,191.412964 139.009811,193.267929 
	C138.995651,232.030655 139.004883,270.793365 138.973892,309.556061 
	C138.972870,310.851776 138.600388,312.147156 138.118561,313.758423 
	C130.488403,302.225555 126.159546,289.215179 123.636330,275.629883 
	C117.939270,244.956268 122.771225,215.862228 137.690308,188.150909 
z"/>
<path fill="#FDD45F" opacity="1.000000" stroke="none" 
	d="
M366.170563,310.694336 
	C363.482727,310.307159 364.019714,308.223175 364.018646,306.488556 
	C363.995514,269.450287 363.996887,232.412033 364.016815,195.373779 
	C364.017578,193.937134 363.618347,192.321793 365.522766,191.143585 
	C377.044800,211.179733 381.806305,232.868103 380.980164,255.818481 
	C380.285736,275.109375 376.021210,293.483185 366.170563,310.694336 
z"/>
<path fill="#FDB67A" opacity="1.000000" stroke="none" 
	d="
M310.039276,135.600067 
	C307.573914,137.919357 308.010712,140.871353 308.006317,143.670242 
	C307.962769,171.292923 307.933716,198.915619 307.856934,227.039154 
	C301.897095,229.984467 297.467987,228.076538 295.261383,222.283951 
	C294.481964,220.237915 294.790436,218.034561 293.864502,215.621185 
	C291.714783,207.569244 289.888580,199.875122 287.955353,192.207932 
	C287.117126,188.883392 287.124054,185.683182 288.763519,182.596741 
	C290.597626,179.143845 289.687073,175.507568 289.530487,171.472076 
	C290.277405,159.307281 289.676514,147.576263 289.914276,135.853775 
	C289.963715,133.415680 289.510315,130.847534 291.622742,128.415543 
	C298.198486,129.879028 304.074554,132.438156 310.039276,135.600067 
z"/>
<path fill="#FEC46E" opacity="1.000000" stroke="none" 
	d="
M339.160797,155.846313 
	C337.614716,162.822174 338.013123,169.666687 338.003296,176.482285 
	C337.958649,207.473312 337.925720,238.464325 337.837036,269.949432 
	C333.063721,269.262054 331.244812,264.988312 330.304321,261.338074 
	C328.682709,255.043839 326.188171,249.195312 323.735382,242.918716 
	C324.809784,239.506851 325.032349,236.392502 325.028564,233.197510 
	C324.993835,204.046448 325.027893,174.895294 325.061890,145.261688 
	C329.405609,148.790833 335.073090,151.069260 339.160797,155.846313 
z"/>
<path fill="#FD79B1" opacity="1.000000" stroke="none" 
	d="
M149.953064,332.391907 
	C152.091537,327.068054 151.364197,321.670197 151.418045,316.498779 
	C151.657791,293.468994 151.288116,270.432251 151.604507,247.404388 
	C151.686905,241.407089 150.916840,235.215897 153.360458,229.163284 
	C155.687180,229.712784 156.350739,231.441315 156.779190,233.231659 
	C160.328857,248.064529 164.172699,262.828003 167.312180,277.758026 
	C167.690857,279.558899 167.927643,281.356232 167.461060,283.627991 
	C165.922668,286.969452 166.945480,289.944611 166.991226,292.906799 
	C167.238022,308.881042 167.167709,324.856964 167.036591,340.832306 
	C167.018158,343.078918 166.506317,345.127838 164.121765,346.738586 
	C158.390121,342.890106 154.296982,337.738403 149.953064,332.391907 
z"/>
<path fill="#FDAE81" opacity="1.000000" stroke="none" 
	d="
M298.310394,371.668396 
	C289.730438,375.923126 280.911865,377.911743 271.533875,379.410706 
	C269.312683,378.270050 268.971191,376.486786 268.969116,374.604218 
	C268.954620,361.293915 268.515808,347.980896 269.361115,334.224609 
	C269.816132,332.436462 270.413055,331.084290 271.639618,330.596466 
	C279.511108,327.465668 287.323639,323.978455 296.563171,325.166565 
	C298.486572,326.676910 298.976013,328.384369 299.020081,330.268951 
	C299.325623,343.325806 298.859222,356.388397 299.299530,369.444916 
	C299.321533,370.097748 298.957520,370.713013 298.310394,371.668396 
z"/>
<path fill="#FAA587" opacity="1.000000" stroke="none" 
	d="
M253.635864,121.967148 
	C260.547333,121.460609 266.991150,122.338203 273.792084,123.354095 
	C274.677856,124.707260 275.892944,125.640953 275.883453,127.006477 
	C275.815338,136.824356 277.223907,146.693954 274.746521,156.841217 
	C268.948792,162.257141 272.115051,167.985626 273.561951,173.356201 
	C274.264984,175.965622 276.525391,176.026093 277.840210,173.487976 
	C279.620575,170.051254 281.906799,169.283127 285.058350,171.521606 
	C288.416779,173.907028 289.049957,178.011978 286.608185,181.124710 
	C285.778564,182.182251 284.760498,183.070572 283.581421,183.691071 
	C274.394196,188.526031 264.467621,189.868927 253.907547,189.614822 
	C251.843933,187.795456 251.410583,185.727448 251.400558,183.117188 
	C250.856506,181.129654 250.981476,179.459366 250.951279,177.810272 
	C250.910507,175.584106 251.843933,173.970825 254.115997,173.363251 
	C256.240906,172.795029 257.626862,173.757187 258.556244,175.581512 
	C259.305878,177.053101 259.912659,178.968002 262.049133,178.330292 
	C264.351746,177.642975 264.075256,175.475754 263.789551,173.720795 
	C263.285492,170.624237 262.776154,167.479065 261.291595,164.661407 
	C260.300537,162.780411 258.995483,161.901596 258.088501,164.732834 
	C257.389648,166.914459 256.512817,168.464890 253.565155,166.968491 
	C252.034210,165.145706 251.948090,163.307693 251.933975,161.465485 
	C251.847183,150.134293 251.856873,138.802963 251.928772,127.471741 
	C251.940430,125.634438 251.960663,123.782608 253.635864,121.967148 
z"/>
<path fill="#FA84A5" opacity="1.000000" stroke="none" 
	d="
M174.639969,146.924576 
	C181.017242,141.295914 188.037842,137.495438 195.643555,134.039124 
	C198.074738,135.446259 198.064163,137.646912 198.066742,139.793030 
	C198.079636,150.506195 198.311096,161.220566 197.830536,172.364258 
	C195.152847,177.918137 196.196533,183.004547 197.725327,188.154282 
	C198.281128,190.026474 198.804657,191.955246 198.948730,194.349396 
	C198.654709,196.942123 197.844162,198.984955 197.024048,201.458679 
	C190.786697,206.430527 183.775467,207.260742 176.101013,206.831253 
	C173.935989,205.167526 173.439209,203.254120 173.836823,200.651031 
	C177.206985,196.684464 177.034866,192.728928 175.569931,188.450272 
	C174.573990,185.541397 173.491318,182.602844 173.405319,179.014252 
	C172.402725,169.566162 172.994370,160.528931 172.987183,151.500244 
	C172.985962,149.963867 173.708069,148.654358 174.639969,146.924576 
z"/>
<path fill="#FA8C9D" opacity="1.000000" stroke="none" 
	d="
M196.093552,174.444931 
	C195.998718,161.056580 196.000427,148.003479 196.003433,134.482697 
	C201.980194,130.340454 208.708023,128.546783 215.629669,126.301880 
	C218.367462,128.068985 218.057510,130.684967 218.075623,133.152008 
	C218.147781,142.976990 218.074539,152.802460 218.121613,162.627594 
	C218.131149,164.619080 218.001785,166.632156 218.858124,168.988205 
	C219.874481,171.185303 219.909836,173.008087 219.195740,175.278961 
	C218.219955,177.036011 216.957626,177.642258 215.092407,177.911331 
	C213.862823,177.764267 213.195755,177.306580 212.510681,176.828049 
	C211.359741,176.024094 210.654434,173.847229 209.035645,174.623764 
	C207.296860,175.457870 207.824524,177.609894 208.123123,179.136002 
	C209.053864,183.893234 209.124725,189.308762 215.746490,190.934738 
	C217.379089,192.841232 217.744766,194.694885 217.061035,197.147156 
	C210.993301,202.244400 204.090515,202.706482 196.605896,201.985306 
	C196.113724,199.405487 195.355957,196.936127 198.109940,194.962173 
	C202.816742,190.194092 202.820236,185.097702 198.523346,177.937241 
	C197.844315,176.805679 196.776093,175.973312 196.093552,174.444931 
z"/>
<path fill="#FA9C8F" opacity="1.000000" stroke="none" 
	d="
M253.591248,121.500687 
	C254.011963,134.835876 253.991333,148.000916 254.016403,161.165878 
	C254.019836,162.967773 253.633514,164.849945 255.003326,166.836365 
	C253.215424,171.116608 250.819168,169.068436 248.463959,167.478424 
	C247.442261,166.788681 246.680786,165.095718 245.152679,166.206696 
	C243.853653,167.151093 244.520004,168.664154 244.730392,169.926193 
	C245.084625,172.051117 245.726089,174.137863 245.854523,176.290405 
	C246.097717,180.366287 247.841080,182.465302 252.515167,181.564636 
	C253.225922,183.874588 253.602448,186.078598 254.002380,188.698502 
	C254.070618,189.820755 253.882324,190.596985 253.260559,190.815094 
	C247.082474,192.982498 241.037598,195.861572 233.823547,194.440491 
	C232.059219,192.371033 231.988144,190.366898 232.735016,187.875244 
	C238.446762,182.018845 238.911606,176.852310 234.527390,168.493286 
	C233.846634,167.195389 232.853745,166.060471 232.385345,164.168793 
	C231.485291,151.778427 231.986374,139.788742 231.962982,127.803215 
	C231.959991,126.270454 232.240662,124.816254 233.657013,123.271957 
	C240.283539,121.379105 246.737732,121.523773 253.591248,121.500687 
z"/>
<path fill="#FB9597" opacity="1.000000" stroke="none" 
	d="
M234.201660,186.534180 
	C234.028778,188.889069 234.013702,190.918335 233.997849,193.380524 
	C229.147079,198.597275 223.165009,198.925186 216.550735,197.888672 
	C215.851456,195.709549 215.505661,193.797852 215.088562,191.481384 
	C213.688492,186.671997 212.258224,182.279678 213.672775,177.289734 
	C215.102448,176.699188 216.238510,176.396667 217.725250,176.047058 
	C221.069382,177.999451 220.627228,181.544937 221.829590,184.350128 
	C222.337402,185.534897 222.575729,187.260117 224.222183,187.048233 
	C226.228790,186.790009 226.118591,184.833145 225.874069,183.473465 
	C224.934738,178.250610 225.290863,172.226913 218.213013,170.086945 
	C215.203812,169.064743 216.042023,166.756897 216.032837,164.924713 
	C215.969803,152.347092 216.000000,139.768982 215.999893,126.741013 
	C221.580246,124.558151 227.219360,123.111893 233.527832,122.850189 
	C233.959610,136.712433 233.954102,150.527130 233.924011,164.829880 
	C231.904785,168.387848 231.710083,171.647552 232.542984,175.162125 
	C233.403030,178.791153 234.450134,182.413483 234.201660,186.534180 
z"/>
<path fill="#FDB67A" opacity="1.000000" stroke="none" 
	d="
M298.394043,372.053467 
	C295.891266,359.031708 297.511292,345.909088 296.984650,332.842834 
	C296.899078,330.719818 297.465576,328.516327 296.026459,326.190674 
	C295.566528,323.797485 297.280975,322.934204 298.623871,321.534851 
	C299.028351,321.195984 299.197235,320.924805 299.056763,320.753418 
	C298.635498,320.239532 299.376129,320.745667 298.422058,320.829559 
	C294.081238,321.372040 290.129303,323.594360 285.619629,321.327423 
	C284.034546,319.172058 283.970123,317.173676 284.846802,314.695343 
	C289.411316,311.170532 294.691803,310.462830 299.640381,308.881012 
	C300.573059,308.582886 301.728027,308.769867 302.510406,309.340881 
	C307.547272,313.017090 312.768707,316.563965 314.518188,323.561646 
	C313.918365,336.420593 313.895508,348.837250 314.390625,361.254669 
	C314.438873,362.464294 314.156555,363.545197 313.353088,364.984680 
	C308.596710,368.152893 303.751709,370.247406 298.394043,372.053467 
z"/>
<path fill="#FB7EAB" opacity="1.000000" stroke="none" 
	d="
M163.812714,347.179047 
	C164.925812,344.466034 165.023285,341.836273 165.017685,339.149048 
	C164.983383,322.694092 164.999786,306.239014 165.001831,289.783997 
	C165.002121,287.461304 164.828979,285.108521 166.303986,282.556030 
	C169.017914,283.129333 169.384689,285.462524 170.060272,287.668152 
	C172.413300,295.350464 173.427597,303.358704 176.011169,311.386475 
	C177.399628,316.651703 178.872742,321.165894 181.918961,325.600769 
	C185.377762,330.636322 185.655579,337.386719 185.914124,344.068298 
	C183.805374,347.045929 185.379501,349.944061 185.070084,352.673401 
	C184.735580,355.624054 185.069473,358.782532 181.185089,360.192505 
	C174.481415,356.785797 169.080811,352.302490 163.812714,347.179047 
z"/>
<path fill="#FB7EAB" opacity="1.000000" stroke="none" 
	d="
M174.520584,146.637146 
	C174.892197,157.365829 174.940750,168.242126 174.984009,179.591034 
	C171.060059,181.482742 170.561020,184.307205 171.385254,188.002777 
	C172.281448,192.021149 172.965637,196.073181 174.981110,200.083862 
	C175.298248,202.074921 175.601166,203.724548 175.953766,205.733475 
	C175.556107,207.972977 174.045563,208.744965 172.450623,209.265930 
	C168.172684,210.663300 163.823395,211.870682 159.368698,212.494278 
	C154.766739,213.138504 152.319214,211.394440 151.458145,206.921936 
	C150.727432,203.126450 150.593613,199.274384 152.388092,195.666199 
	C153.231628,193.970093 154.496246,192.522614 156.545547,192.493332 
	C158.920380,192.459412 159.363358,194.454147 159.890869,196.217819 
	C160.128662,197.012833 160.196289,197.858032 160.570282,198.615097 
	C161.046509,199.579132 161.736572,200.349258 162.891663,199.987122 
	C163.771622,199.711258 164.127502,198.830795 163.995117,197.959885 
	C163.161819,192.477921 163.569824,186.473938 157.567200,182.746674 
	C156.328491,176.476044 158.048782,170.264999 155.917145,163.868195 
	C160.989655,156.899307 167.451965,151.685104 174.520584,146.637146 
z"/>
<path fill="#FDAE81" opacity="1.000000" stroke="none" 
	d="
M272.995117,158.342880 
	C274.890533,146.870560 273.576630,135.663254 274.112671,124.014244 
	C280.071594,124.157219 285.734467,125.871910 291.682739,127.916725 
	C291.998962,140.220230 291.985229,152.318466 292.011993,164.416595 
	C292.017151,166.749588 291.971222,169.055191 291.040802,171.684113 
	C283.728943,169.307861 276.392242,166.648941 272.995117,158.342880 
z"/>
<path fill="#FAA587" opacity="1.000000" stroke="none" 
	d="
M270.357727,332.068298 
	C270.848206,347.679077 270.951447,363.035004 271.079315,378.884308 
	C266.749725,380.368652 262.329041,380.784760 257.436218,380.845520 
	C254.972641,379.283112 254.042847,377.185760 254.028656,374.751495 
	C253.957993,362.637695 253.472595,350.519867 254.429565,337.961304 
	C258.171112,331.466583 264.013062,331.483978 270.357727,332.068298 
z"/>
<path fill="#FA9C8F" opacity="1.000000" stroke="none" 
	d="
M255.401840,336.111328 
	C255.853745,346.317780 255.976501,356.242645 255.975922,366.167511 
	C255.975662,370.796967 255.931488,375.412445 256.992920,380.370361 
	C251.966705,381.458954 246.936142,380.993500 241.455978,380.639954 
	C239.796173,379.721130 239.096619,378.525146 239.088806,377.168640 
	C239.019943,365.214264 238.230453,353.249176 239.623962,340.842560 
	C243.802353,335.415527 249.240402,335.044128 255.401840,336.111328 
z"/>
<path fill="#FEBE74" opacity="1.000000" stroke="none" 
	d="
M313.477539,365.279877 
	C311.413879,351.236938 311.137390,337.084106 313.366241,322.460419 
	C319.531372,324.173309 325.863403,325.630188 331.840942,329.085571 
	C333.918304,336.959564 333.179596,344.519836 332.199493,352.467468 
	C326.619324,358.002411 319.966949,361.210907 313.477539,365.279877 
z"/>
<path fill="#FC9993" opacity="1.000000" stroke="none" 
	d="
M240.710541,339.839722 
	C241.018417,353.305206 241.010361,366.468781 241.004425,380.069153 
	C236.268311,379.996307 231.530075,379.486603 226.398438,378.839844 
	C223.966507,377.042877 223.981461,374.722992 223.922272,372.394745 
	C223.763504,366.150421 224.240067,359.893463 223.524536,353.212769 
	C223.181107,344.943970 230.009232,338.516968 240.710541,339.839722 
z"/>
<path fill="#FEC46E" opacity="1.000000" stroke="none" 
	d="
M332.291199,352.767212 
	C330.054718,345.243164 331.402802,337.496033 330.994385,329.345245 
	C335.174713,324.888550 340.774719,323.366425 345.916626,320.557526 
	C348.284363,321.942078 347.921051,324.004456 347.998474,325.928741 
	C348.121857,328.993744 347.524445,332.139679 349.178772,335.506775 
	C344.782654,342.538635 338.440369,347.344543 332.291199,352.767212 
z"/>
<path fill="#FB9597" opacity="1.000000" stroke="none" 
	d="
M224.486679,351.679871 
	C226.935486,360.341309 225.639801,369.108215 226.003998,378.253174 
	C219.061966,377.000305 212.061310,375.498383 205.151123,372.538757 
	C202.895569,370.025208 202.648636,367.416107 203.535400,364.211761 
	C204.554520,362.011200 206.165680,361.100769 207.965958,360.718689 
	C213.490250,359.546234 218.185928,357.026947 221.911133,352.736450 
	C222.453094,352.112244 223.263657,351.800476 224.486679,351.679871 
z"/>
<path fill="#FA84A5" opacity="1.000000" stroke="none" 
	d="
M205.059265,362.552002 
	C204.993851,365.725433 204.968933,368.536469 204.919083,371.819153 
	C196.286392,369.829651 188.642365,365.393982 180.942871,360.399963 
	C183.255615,358.214966 182.798141,355.454376 183.052322,352.818542 
	C183.327911,349.960602 181.811066,346.825043 184.599213,344.129303 
	C186.897003,344.217896 187.726929,345.712616 188.437073,347.188782 
	C191.568909,353.698822 195.858246,358.868713 203.306335,360.589325 
	C204.112091,360.775452 204.723160,361.406860 205.059265,362.552002 
z"/>
<path fill="#88614F" opacity="1.000000" stroke="none" 
	d="
M111.938461,249.172516 
	C111.932152,247.068924 111.932152,245.433624 111.932152,243.798325 
	C112.187660,243.796585 112.443176,243.794861 112.698685,243.793121 
	C112.698685,249.298965 112.698685,254.804810 112.698685,260.310669 
	C112.447380,260.330078 112.196068,260.349487 111.944763,260.368896 
	C111.944763,256.792877 111.944763,253.216843 111.938461,249.172516 
z"/>
<path fill="#E88895" opacity="1.000000" stroke="none" 
	d="
M254.449997,112.889305 
	C250.615585,112.880287 247.208496,112.880287 243.801407,112.880287 
	C243.804764,112.674797 243.808121,112.469315 243.811478,112.263824 
	C248.242249,112.263824 252.673035,112.263824 257.328644,112.263824 
	C257.012512,112.547447 256.931976,112.647896 256.827850,112.706230 
	C256.686829,112.785217 256.529907,112.876785 256.376007,112.884209 
	C255.877380,112.908272 255.377014,112.896370 254.449997,112.889305 
z"/>
<path fill="#090E16" opacity="1.000000" stroke="none" 
	d="
M205.400375,362.809753 
	C194.319382,361.245148 188.768784,354.067017 185.178635,344.280701 
	C183.750458,338.511627 182.532471,333.028778 181.312546,327.546417 
	C181.135544,326.750946 181.108536,325.348999 180.743561,325.253418 
	C174.081192,323.509094 176.175034,317.225403 174.290207,312.614990 
	C175.928162,309.603394 173.069397,305.625580 177.235870,303.616272 
	C179.103745,303.782776 179.422012,302.863373 179.765198,301.594391 
	C180.542648,298.719788 179.534439,296.023224 179.166809,292.900543 
	C178.917770,289.205414 178.745346,285.780731 180.063263,282.683228 
	C181.889267,278.391602 182.651672,274.461487 180.513687,269.860168 
	C178.791092,266.152863 182.497543,264.826782 185.357285,263.117065 
	C187.325897,262.240234 188.341034,260.713196 190.145081,259.644409 
	C195.170303,257.482605 197.068314,253.786880 197.050797,248.837570 
	C197.041351,246.170456 197.644150,243.563766 198.289429,240.618286 
	C198.506805,239.585236 198.706833,238.913345 198.878510,237.882751 
	C199.299530,234.092361 201.149216,230.658234 198.790619,226.980545 
	C196.546005,225.410995 195.571564,227.097244 194.063873,228.294266 
	C192.958572,228.423584 192.319504,228.107437 191.548264,227.262527 
	C190.677902,224.662781 191.466064,222.774155 193.248199,220.838470 
	C194.348663,220.295120 195.133148,220.277237 196.314545,220.524353 
	C199.178894,221.162003 201.786880,220.855957 204.593124,221.792114 
	C205.638565,222.238708 206.212692,222.714920 207.027130,223.465576 
	C209.760284,225.684753 212.306351,224.338943 214.805023,223.844208 
	C218.188400,223.174316 221.330154,221.707672 224.985641,220.648560 
	C231.045746,219.859512 236.510437,218.180954 242.388763,216.544769 
	C249.671631,214.447281 256.848969,213.438812 263.970032,210.629333 
	C266.252472,209.869736 268.188812,209.444321 270.162811,209.427124 
	C272.214172,209.409241 274.242035,209.803467 274.851257,212.165161 
	C275.443909,214.462677 274.135101,215.896301 272.195770,216.866058 
	C271.313873,217.307053 270.437683,217.765442 269.066589,218.156494 
	C261.095947,219.812103 253.769043,222.299881 245.769653,223.644653 
	C238.055939,225.596100 230.685532,227.340408 223.046143,229.488251 
	C218.973099,230.409302 215.298843,231.419510 211.601044,232.337784 
	C210.795074,232.537918 209.970596,232.734161 209.229843,233.092499 
	C206.238617,234.539459 205.976608,237.571762 206.657150,239.930939 
	C207.324036,242.242722 209.802170,240.672440 211.418854,240.271194 
	C214.801849,239.431564 218.140701,238.412476 221.917480,237.605087 
	C229.801041,236.145935 236.792740,232.619904 244.931915,232.108093 
	C248.141205,233.338455 249.543884,235.159210 247.862671,238.561020 
	C241.406281,241.463379 234.963791,243.144882 228.105591,244.686707 
	C220.346848,247.546158 211.790283,246.691635 204.741241,251.571487 
	C206.454529,253.087112 207.929886,252.211731 209.253159,251.929413 
	C212.418747,251.253998 215.520981,251.209625 218.528458,252.416855 
	C221.430222,253.581665 224.307693,253.600235 227.596359,252.604828 
	C233.789673,250.445892 239.824677,249.067535 246.164139,247.379959 
	C253.025833,244.750259 259.904907,243.515854 266.920776,241.450104 
	C271.791748,240.400345 275.284454,238.405304 277.639404,233.971390 
	C280.130432,229.281281 285.136566,227.791534 290.468750,226.807922 
	C291.200958,226.778503 291.778870,226.950058 291.925964,226.626038 
	C292.194550,226.034363 292.121826,226.714386 291.250305,226.259308 
	C290.522980,225.038742 290.479980,224.031662 290.750183,222.599915 
	C292.453308,219.819748 289.655762,215.359650 294.895996,214.704193 
	C295.529327,215.480988 295.905365,216.056488 295.986084,216.670807 
	C296.837494,223.150040 299.086914,228.155121 307.399323,227.462677 
	C311.238007,229.383362 314.073792,231.726929 315.446991,235.580948 
	C316.733917,239.192963 320.754700,239.818710 323.470673,242.396820 
	C328.058380,247.357483 330.603241,252.800751 331.329956,259.346008 
	C331.783386,263.429626 335.207550,266.460480 337.510437,270.221588 
	C341.194061,278.833130 345.542175,286.836975 348.273132,295.880920 
	C350.591858,304.337494 351.395142,312.374695 346.362000,320.298035 
	C342.548981,325.414185 337.303192,327.352600 331.338654,328.736877 
	C324.886047,327.941162 318.642273,327.363708 313.809387,322.142517 
	C311.019470,319.344299 308.592316,316.681091 306.106018,314.074280 
	C302.846222,310.656525 299.498810,308.504700 294.854431,312.203217 
	C292.648651,313.959778 289.615509,313.983643 286.409607,314.296967 
	C279.589233,317.453003 274.912048,313.652039 270.282806,310.218323 
	C267.218567,307.945465 265.440033,304.457947 263.174805,301.337036 
	C265.327393,311.840485 262.002106,320.002197 253.005402,326.174164 
	C248.553802,328.214539 244.191956,329.133606 239.669952,329.261658 
	C237.519638,329.322571 235.623184,329.555023 235.458862,332.806549 
	C241.549789,332.933014 246.816635,329.942383 252.799408,328.536377 
	C261.459717,326.621887 269.494263,323.744720 278.168640,321.992432 
	C279.148285,322.049316 279.782013,322.166931 280.712189,321.906189 
	C282.441254,321.318420 283.846466,320.658691 285.743622,321.149475 
	C290.502197,320.915527 294.579834,318.652069 299.529022,318.795898 
	C300.688690,319.535187 300.795624,320.398468 300.284943,321.752808 
	C298.921906,323.424469 297.885132,324.819122 295.951599,325.644897 
	C287.377380,326.991638 279.494843,329.974152 271.056030,332.149658 
	C265.961243,333.557404 261.177490,334.791687 256.087616,336.209442 
	C251.086716,337.521149 246.391937,338.649384 241.361816,339.959656 
	C237.383224,341.104980 233.659256,341.840607 230.119308,343.095398 
	C226.559296,344.357361 227.248245,348.697052 224.963989,351.380829 
	C220.388840,358.642822 214.027802,362.312012 205.400375,362.809753 
z"/>
<path fill="#11161F" opacity="1.000000" stroke="none" 
	d="
M178.189758,303.753357 
	C176.175003,305.029266 175.853928,306.437408 176.540146,308.234131 
	C177.172501,309.889832 176.509796,311.095917 174.645508,312.048859 
	C171.818985,302.412628 169.350525,292.630768 166.697876,282.486389 
	C162.353928,264.662872 158.194153,247.201859 153.869171,229.370636 
	C150.270203,222.520081 148.337326,215.668350 148.789719,208.282410 
	C149.047287,204.077240 149.655899,199.907623 149.475098,195.659103 
	C149.381454,193.458908 150.567368,191.206985 152.365829,190.127686 
	C155.151062,188.456192 156.159485,185.957138 157.130463,182.848404 
	C160.924789,181.268616 163.023178,182.835129 163.863266,186.346954 
	C164.747421,190.043015 165.521027,193.767044 166.268494,197.493790 
	C166.825012,200.268539 166.172623,202.708267 163.050659,203.137909 
	C159.944672,203.565353 158.722916,201.349243 158.305939,198.591766 
	C158.044647,196.863876 158.486984,195.001953 157.268234,193.157593 
	C151.391464,195.932632 153.130020,201.058670 153.140671,205.623169 
	C153.152115,210.520615 155.606140,211.907440 160.068222,210.662567 
	C165.160385,209.241882 170.265717,207.868469 175.684387,206.283646 
	C182.522705,204.725449 189.042007,203.358139 195.901825,201.860977 
	C202.665131,200.462067 209.087921,199.192993 215.853973,197.772583 
	C221.888321,196.466385 227.579391,195.311523 233.633759,193.985046 
	C240.471710,192.399643 246.946350,190.985855 253.723389,189.343231 
	C262.909088,187.101730 272.176727,186.859467 280.735291,183.364929 
	C283.528168,182.224579 286.720184,181.054871 286.733765,177.463760 
	C286.747498,173.826462 283.820099,172.170135 280.776215,170.771957 
	C279.443359,171.669525 280.347992,172.909271 280.216736,173.905426 
	C279.887909,176.401321 278.640472,177.899338 276.086182,178.078354 
	C273.782257,178.239838 272.101257,177.096802 271.587921,174.933472 
	C270.591614,170.734756 269.753021,166.487915 269.101898,162.222427 
	C268.769714,160.046448 269.551727,158.226685 272.621948,158.046448 
	C277.057037,164.758133 285.320648,166.252319 290.665161,171.946808 
	C292.564545,176.553940 293.002319,180.942413 289.574249,184.768845 
	C288.151123,186.357376 288.821014,187.783890 289.212646,189.364365 
	C291.252075,197.594193 293.269867,205.829391 295.292786,214.475098 
	C291.125793,216.182495 294.139038,220.210800 292.151001,222.732208 
	C288.747101,222.727936 288.676758,220.036530 288.187073,217.935638 
	C286.610840,211.173096 284.514923,204.550827 282.898773,197.798691 
	C282.386047,195.656555 282.682983,192.334763 278.752380,192.968414 
	C275.716309,193.457855 273.010742,194.082443 272.696106,198.130676 
	C272.284851,203.422623 269.345001,206.969742 263.748840,208.442108 
	C258.748779,209.099106 255.031769,207.106339 252.858643,203.372375 
	C250.605377,199.500717 247.883438,199.049820 243.831039,200.404892 
	C242.740646,200.502029 242.026520,200.631195 240.996094,201.039566 
	C240.165680,201.302979 239.681076,201.423080 238.824249,201.616531 
	C233.919357,202.307800 229.646591,204.150192 224.695404,204.555588 
	C218.784805,206.167557 212.730728,205.886612 207.356750,209.358063 
	C205.781586,210.367538 204.584915,211.249908 203.351593,212.690506 
	C202.322830,213.267136 201.567001,213.439407 200.393951,213.465240 
	C199.507339,213.367493 199.025299,213.228806 198.262527,212.821884 
	C197.039352,211.821609 196.203934,209.464783 195.036423,212.395645 
	C194.364899,214.081421 194.493271,215.891403 194.438675,218.022064 
	C194.354630,218.863297 194.212112,219.324982 193.792084,220.078247 
	C187.814850,229.647888 180.428177,229.652695 175.255722,220.075714 
	C173.530640,216.881668 171.707581,216.373642 168.531433,217.091995 
	C159.615082,219.108643 159.707474,218.996887 161.709290,227.687393 
	C166.373795,247.937424 171.440918,268.089325 176.362396,288.276489 
	C177.340561,292.288818 177.165405,296.558655 179.145142,300.754272 
	C179.208557,302.005249 178.991547,302.788757 178.189758,303.753357 
z"/>
<path fill="#11161F" opacity="1.000000" stroke="none" 
	d="
M252.865997,181.291107 
	C251.369080,183.224823 249.998917,184.974442 247.408157,184.108841 
	C244.789703,183.233978 244.704773,180.994476 244.625732,178.859741 
	C244.501816,175.513809 243.390411,172.393219 242.679428,169.180130 
	C242.158463,166.825882 241.876541,164.251617 244.548218,163.201324 
	C246.961182,162.252716 248.727463,163.888489 249.460693,166.135529 
	C250.527710,169.405441 252.699036,168.016647 254.995361,167.394012 
	C257.947754,166.568161 255.805710,164.738129 256.189850,163.545837 
	C256.638672,162.152740 256.501587,160.472183 258.294373,160.004257 
	C260.146088,159.520935 261.679382,160.333435 262.384033,161.993011 
	C264.390594,166.718933 265.818695,171.634735 265.881104,176.812271 
	C265.911560,179.342789 264.355286,180.808975 261.851349,180.929077 
	C259.637939,181.035233 257.994354,180.041779 257.558746,177.693176 
	C257.229034,175.915573 258.015045,173.446823 254.486115,174.347931 
	C251.351791,175.148285 252.404404,177.061859 252.752304,178.948868 
	C252.870392,179.589355 252.843338,180.256607 252.865997,181.291107 
z"/>
<path fill="#11161F" opacity="1.000000" stroke="none" 
	d="
M190.866577,188.168488 
	C191.250961,189.671829 191.651962,190.772034 191.813568,191.906357 
	C192.183868,194.505447 191.302246,196.592453 188.630981,197.267059 
	C185.758316,197.992538 184.303238,196.136993 183.684280,193.679398 
	C182.679382,189.689362 181.824219,185.659271 181.004105,181.626099 
	C180.620865,179.741302 180.801468,177.834534 182.956711,177.115738 
	C185.158569,176.381348 186.955490,177.333496 187.817871,179.397079 
	C188.958633,182.126801 189.802811,184.980453 190.866577,188.168488 
z"/>
<path fill="#11161F" opacity="1.000000" stroke="none" 
	d="
M175.368896,200.304352 
	C172.255890,199.700653 171.007675,197.931274 170.677887,195.096970 
	C170.258926,191.496216 169.300003,187.959824 168.843018,184.361511 
	C168.315598,180.208450 169.926254,178.956284 174.633423,179.930374 
	C176.242645,184.496399 177.630692,188.898758 178.725861,193.372803 
	C179.428329,196.242493 179.342957,199.059753 175.368896,200.304352 
z"/>
<path fill="#11161F" opacity="1.000000" stroke="none" 
	d="
M195.683197,174.338440 
	C198.943878,174.555054 200.532623,176.277039 201.227356,179.171844 
	C201.951126,182.187668 203.211716,185.081940 203.838379,188.111923 
	C204.589355,191.742981 203.972794,194.795197 198.843170,194.746918 
	C194.482971,189.536392 192.797668,178.613815 195.683197,174.338440 
z"/>
<path fill="#11161F" opacity="1.000000" stroke="none" 
	d="
M217.903610,170.428680 
	C221.456146,167.630249 223.929016,169.017334 225.188980,172.587509 
	C226.455078,176.175034 227.342346,179.915283 228.137024,183.643723 
	C228.704605,186.306641 228.057724,188.820480 225.061981,189.608246 
	C221.630722,190.510559 220.772995,187.844955 220.178314,185.353119 
	C219.495117,182.490387 219.062729,179.567795 218.298676,176.335571 
	C218.027756,174.285858 217.979568,172.571762 217.903610,170.428680 
z"/>
<path fill="#11161F" opacity="1.000000" stroke="none" 
	d="
M213.743759,176.734970 
	C213.962708,181.504669 217.438248,185.638397 215.200623,190.717804 
	C211.108856,192.780960 209.067200,190.859818 208.111664,187.319580 
	C207.298599,184.307159 206.695862,181.231293 206.139679,178.158234 
	C205.671692,175.572388 204.876450,172.400253 208.445923,171.627441 
	C211.829193,170.894943 212.699234,173.912689 213.743759,176.734970 
z"/>
<path fill="#11161F" opacity="1.000000" stroke="none" 
	d="
M234.443268,186.871826 
	C230.844299,181.305969 231.057861,174.921906 229.811813,168.905640 
	C229.409164,166.961578 231.008835,165.617462 233.535355,165.401535 
	C237.129471,167.930649 241.151962,180.325943 239.919968,183.978592 
	C239.097137,186.418167 237.301178,187.253845 234.443268,186.871826 
z"/>
<path fill="#FAA587" opacity="1.000000" stroke="none" 
	d="
M286.044861,320.808441 
	C284.574615,321.734833 283.090057,322.231537 281.301453,322.892731 
	C280.848022,323.169098 280.698547,323.280975 280.281860,323.309204 
	C271.278351,325.528381 262.542084,327.831146 253.400879,330.070587 
	C251.395447,328.983948 250.668900,327.650665 251.746521,325.437195 
	C261.305847,317.851440 263.670410,310.975220 260.589813,299.972687 
	C260.251099,298.762970 259.094452,297.530518 261.347412,296.953552 
	C262.871338,296.563324 263.822968,296.820221 264.403625,298.441498 
	C265.645355,301.908508 267.527283,305.047180 270.110687,307.667938 
	C274.233429,311.850159 279.241821,314.153229 285.597351,314.328918 
	C286.016052,316.413513 286.023285,318.396149 286.044861,320.808441 
z"/>
<path fill="#17171D" opacity="1.000000" stroke="none" 
	d="
M300.370850,322.107422 
	C300.037781,321.320190 300.010590,320.483429 299.966736,319.228333 
	C300.987549,318.095642 302.046417,318.350311 302.400513,319.388702 
	C302.853790,320.717865 301.707642,321.449860 300.370850,322.107422 
z"/>
<path fill="#F87EA7" opacity="1.000000" stroke="none" 
	d="
M178.077942,301.298889 
	C174.586105,294.531616 174.049271,286.958588 172.152588,279.741638 
	C166.996719,260.123322 162.457611,240.343613 157.495926,220.672791 
	C156.876160,218.215668 157.892197,217.805344 159.678513,217.347351 
	C162.091217,216.728760 164.475159,215.998917 166.881683,215.355087 
	C173.962341,213.460754 173.964325,213.468155 176.992813,219.758087 
	C180.555374,227.157257 187.579498,227.454422 192.701355,220.152603 
	C193.117142,219.781647 193.311203,219.671356 193.809357,219.701111 
	C194.192871,220.049774 194.272278,220.258362 194.139267,220.725739 
	C192.572479,222.547073 192.906769,224.561111 192.515060,226.726746 
	C193.732910,232.136749 192.894547,233.581192 187.937302,234.992065 
	C186.174652,235.493729 184.338867,235.688004 182.579025,236.164413 
	C181.054245,236.577179 179.275711,236.389954 177.863968,237.912781 
	C182.045654,238.384140 185.785141,235.472015 190.121094,237.298676 
	C191.076828,237.992599 191.481110,238.674454 192.080994,239.706223 
	C193.054169,242.882355 191.820404,245.439728 191.131714,248.427765 
	C188.621368,251.503235 184.779251,250.780914 181.490341,252.975433 
	C183.983322,253.948547 186.686386,252.897720 188.669647,255.045807 
	C190.449860,258.260284 188.402237,260.616150 187.691010,263.591003 
	C187.166504,265.762573 185.732651,266.137634 184.200119,266.221008 
	C180.242432,266.436279 180.510559,268.584869 182.673752,270.478058 
	C185.415070,272.877167 185.331772,275.759277 183.993256,278.163513 
	C181.474533,282.687531 180.811508,287.471313 180.383316,292.890320 
	C179.952530,296.025177 180.937576,299.012360 178.077942,301.298889 
z"/>
<path fill="#F9AA82" opacity="1.000000" stroke="none" 
	d="
M262.649475,207.568069 
	C269.820465,204.342926 271.416565,202.099060 270.582886,195.188461 
	C270.356445,193.311188 270.893707,192.815475 272.303009,192.445526 
	C274.549591,191.855759 276.891632,191.524582 279.039459,190.688675 
	C282.051147,189.516602 283.317108,190.080612 284.093903,193.478821 
	C286.312469,203.184204 288.972321,212.788712 291.672241,222.730865 
	C292.031708,224.151596 292.177551,225.274384 292.505188,226.782822 
	C292.566467,227.297501 292.445923,227.426529 292.194183,227.785614 
	C285.230804,229.596313 279.096130,231.666641 276.716217,239.642288 
	C275.905609,242.358795 271.437256,241.673492 268.375854,242.845276 
	C267.506439,242.398392 266.808411,241.933273 266.732056,241.341339 
	C265.696503,233.313416 264.612335,225.271820 267.605072,216.884491 
	C269.058319,215.979248 270.279877,215.466736 271.545471,215.110764 
	C272.833282,214.748581 274.308777,214.687607 273.803040,212.687653 
	C273.375885,210.998535 272.147186,210.708221 270.722198,211.044067 
	C268.950012,211.461761 267.215881,212.041046 265.082886,212.530075 
	C261.531769,212.245239 261.674957,210.235138 262.649475,207.568069 
z"/>
<path fill="#5A6FB3" opacity="1.000000" stroke="none" 
	d="
M258.885681,253.305344 
	C259.797150,252.637482 260.608948,252.318985 261.747070,251.965302 
	C264.481842,251.682617 266.827637,251.149261 269.475922,250.257568 
	C272.038239,249.511795 274.232544,248.843796 276.428101,248.178772 
	C280.502716,246.944595 281.869720,248.170502 281.049286,252.455612 
	C280.399933,255.847260 279.830383,259.230469 280.102722,262.904297 
	C280.136719,263.108826 280.131836,263.496552 280.126160,263.286957 
	C280.015137,259.519623 279.708191,255.930237 282.121277,252.519836 
	C284.807800,252.088791 285.903442,253.012787 285.277832,255.836975 
	C283.690521,259.895081 282.774994,263.573761 284.646179,267.322571 
	C285.737823,269.509674 284.760681,270.263733 282.720367,270.630646 
	C279.075500,271.286224 275.855774,273.051178 272.271301,274.840149 
	C264.604126,279.972260 255.869644,281.235718 247.362808,284.194641 
	C243.538055,283.640381 240.182297,284.301422 236.434448,285.306305 
	C235.458435,284.788300 235.373779,284.087769 235.541626,282.998840 
	C236.234619,281.122467 237.546539,280.263092 238.949127,279.099152 
	C236.762238,275.808777 233.580582,276.358734 230.060516,276.785309 
	C225.592133,274.882355 222.933365,271.672729 221.286865,267.164368 
	C222.158951,263.627625 225.130478,263.378845 227.483368,262.703308 
	C231.570999,261.529694 235.503845,260.013306 239.676788,258.129456 
	C241.308289,257.162903 242.744293,256.943848 244.445724,257.282593 
	C243.847198,260.489227 240.071991,262.213226 240.785843,265.992371 
	C244.457306,268.209045 248.487518,266.140594 252.232803,268.060242 
	C254.885315,270.494690 251.987595,272.713074 252.709961,275.148529 
	C255.466003,275.842621 257.576263,274.999969 259.440277,272.945251 
	C259.436279,270.440735 257.312347,269.420074 256.625824,267.235901 
	C257.476501,264.469543 259.654938,263.504883 261.736816,262.733490 
	C263.805847,261.966888 264.869110,260.583557 265.787720,258.415192 
	C267.449829,254.421234 264.250916,255.577362 262.356079,254.937714 
	C261.072906,254.100906 259.493408,255.025009 258.885681,253.305344 
z"/>
<path fill="#5A6FB3" opacity="1.000000" stroke="none" 
	d="
M190.753601,309.009033 
	C198.249039,314.620880 206.229355,316.439209 215.571228,313.952606 
	C217.107254,315.001434 217.233673,316.372131 216.876312,317.645569 
	C213.935867,328.123383 213.104095,339.112976 208.946167,349.704193 
	C205.342896,352.747314 202.512146,351.146240 199.791397,348.895477 
	C196.604813,346.259369 195.164810,342.441925 192.989441,338.619507 
	C191.911179,334.690338 190.516495,331.295959 189.536514,327.317932 
	C189.675613,322.714447 188.723099,318.608765 188.987946,314.442108 
	C189.104492,312.608551 189.015274,310.765991 190.753601,309.009033 
z"/>
<path fill="#FAA587" opacity="1.000000" stroke="none" 
	d="
M267.408997,216.473877 
	C267.878326,224.926346 267.939209,233.429611 267.999054,242.391861 
	C261.515656,245.729004 254.357361,246.282715 247.378098,248.750351 
	C244.100754,245.622910 244.375183,242.267548 246.666840,238.440689 
	C248.052200,236.101852 247.112274,234.735367 245.337097,233.387817 
	C241.980774,230.023056 242.405014,226.537445 244.631592,222.591812 
	C252.337402,220.338196 259.669006,218.431442 267.408997,216.473877 
z"/>
<path fill="#536BAF" opacity="1.000000" stroke="none" 
	d="
M307.350861,291.360107 
	C306.008148,287.290588 306.814514,285.546936 311.207031,284.830109 
	C317.426544,283.815125 322.507690,280.304962 326.030945,274.441650 
	C328.518066,272.630554 329.679230,274.557861 330.302795,276.057190 
	C334.082306,285.144745 339.587677,293.596619 340.667450,303.699402 
	C340.897186,305.848969 341.082642,307.975281 340.056641,310.399536 
	C337.872406,312.946869 335.541473,312.281921 333.491364,311.151917 
	C324.174072,306.016418 316.111328,299.101410 307.714935,292.664154 
	C307.489502,292.491333 307.497864,292.058289 307.350861,291.360107 
z"/>
<path fill="#FC9993" opacity="1.000000" stroke="none" 
	d="
M239.699615,199.421936 
	C240.716110,199.139908 241.472549,198.975021 242.612289,198.874054 
	C246.552628,204.932465 245.682770,211.088104 243.330948,217.669907 
	C237.461761,220.063965 231.776947,221.505554 225.544342,222.504364 
	C221.427872,218.685074 220.583176,209.689880 223.671722,203.296631 
	C228.545258,201.866364 233.093536,200.822205 238.016449,199.837112 
	C238.781281,199.896606 239.130737,199.777527 239.699615,199.421936 
z"/>
<path fill="#102757" opacity="1.000000" stroke="none" 
	d="
M338.522339,311.108582 
	C339.367676,303.893066 338.398376,297.219940 335.029388,291.065948 
	C332.026337,285.580353 330.552368,279.358002 326.483032,274.182465 
	C326.609283,272.522217 327.280670,271.039032 328.888000,269.453156 
	C336.107697,280.888519 341.640320,292.804840 342.848114,306.190552 
	C343.879181,317.617981 330.367920,324.249512 322.047089,318.660065 
	C316.157990,314.704071 311.129974,309.995697 307.087219,304.305176 
	C305.158875,301.590881 307.926697,298.643433 307.990295,295.344604 
	C311.492249,293.583313 311.937775,296.575409 312.663452,298.481995 
	C314.348297,302.908630 316.814545,306.732574 320.178619,310.028595 
	C325.616455,315.356354 328.112701,315.809937 335.101837,312.705688 
	C336.157135,312.236969 337.313629,312.008575 338.522339,311.108582 
z"/>
<path fill="#F68F97" opacity="1.000000" stroke="none" 
	d="
M223.583374,202.883804 
	C224.223877,209.148239 223.299774,215.450012 225.076294,222.059784 
	C220.238937,223.882492 215.382294,225.326050 210.473480,226.562561 
	C209.211273,226.880508 207.610168,227.855026 206.349777,225.758163 
	C206.675507,220.142120 204.816879,215.015778 205.235138,209.363220 
	C205.043594,206.830276 206.183334,206.220398 208.139175,205.880005 
	C213.172287,205.004013 218.162445,203.881241 223.583374,202.883804 
z"/>
<path fill="#102757" opacity="1.000000" stroke="none" 
	d="
M193.841492,337.498962 
	C196.606430,341.114105 198.095474,345.195038 201.499115,347.993347 
	C203.211761,349.401398 204.899155,350.522003 207.613693,350.082336 
	C216.326843,343.593445 218.206894,334.652374 218.023438,324.828918 
	C217.972397,322.096191 217.448135,319.107483 220.458588,316.988861 
	C228.517624,322.268677 228.181030,328.788147 223.994217,336.106506 
	C222.106689,339.405792 221.547943,343.293945 219.379822,346.578674 
	C215.878098,351.883759 211.142365,355.253326 204.896515,354.683868 
	C199.003998,354.146698 195.199036,349.964142 192.854675,344.177826 
	C192.382477,342.003571 191.569962,340.289551 191.713699,338.059204 
	C192.399872,337.431580 192.912003,337.312073 193.841492,337.498962 
z"/>
<path fill="#FA9C8F" opacity="1.000000" stroke="none" 
	d="
M243.404999,218.079742 
	C242.998230,211.997116 242.998016,205.940002 242.996704,199.410416 
	C244.553970,198.472702 246.146057,198.096649 247.663422,197.522949 
	C250.503479,196.449127 252.112961,197.125168 253.049515,200.234390 
	C254.370132,204.618744 257.613312,206.857376 262.613708,207.080200 
	C263.088257,208.815353 262.693848,210.572403 264.381805,212.221375 
	C257.737457,214.374832 250.774490,216.240051 243.404999,218.079742 
z"/>
<path fill="#39508C" opacity="1.000000" stroke="none" 
	d="
M338.387115,310.862305 
	C334.113068,318.935120 325.843018,318.183319 320.798035,313.403412 
	C316.188599,309.036163 312.043396,304.363800 310.698029,297.854370 
	C310.463898,296.721497 309.927917,295.653717 308.371613,295.064758 
	C307.459595,293.939178 306.891846,292.920837 307.168579,291.338928 
	C318.072327,296.747345 326.160370,306.751709 338.387115,310.862305 
z"/>
<path fill="#FC9993" opacity="1.000000" stroke="none" 
	d="
M244.612152,222.204407 
	C245.016937,225.594543 245.028076,228.944168 245.055939,232.761963 
	C237.657715,235.164062 230.242752,237.098007 222.415314,239.017761 
	C219.041367,235.804306 219.381241,232.377014 221.651886,228.480728 
	C229.408142,226.135193 236.813309,224.149536 244.612152,222.204407 
z"/>
<path fill="#39508C" opacity="1.000000" stroke="none" 
	d="
M220.846436,316.606201 
	C219.104691,320.956879 220.345413,325.165741 219.959625,329.255951 
	C219.410965,335.072937 218.619400,340.786682 215.121460,345.754272 
	C213.516449,348.033661 211.654938,349.773132 208.378326,350.025696 
	C209.971741,338.102539 212.381195,326.296936 215.917542,314.349121 
	C216.789917,313.415253 217.582901,312.856079 218.657684,312.206970 
	C219.121002,312.241760 219.302521,312.366455 219.791702,312.611389 
	C220.343704,313.902100 220.588043,315.072601 220.846436,316.606201 
z"/>
<path fill="#FA9C8F" opacity="1.000000" stroke="none" 
	d="
M246.607544,238.067749 
	C247.005325,241.348846 247.004776,244.614609 247.004166,248.321472 
	C240.943008,250.556122 234.881897,252.349670 228.427826,254.135437 
	C224.130035,251.283325 224.342758,247.751999 226.671143,243.584274 
	C233.409592,241.513702 239.809402,239.783051 246.607544,238.067749 
z"/>
<path fill="#EBAA7E" opacity="1.000000" stroke="none" 
	d="
M294.695007,282.673828 
	C297.023010,284.500336 297.442505,286.939270 298.234772,289.582214 
	C297.783722,299.458191 291.260986,304.705658 281.036987,303.398071 
	C271.849274,299.202179 268.732666,290.891815 273.484863,284.474640 
	C274.939026,282.510986 276.295044,281.553802 278.210907,284.411346 
	C279.349304,288.565033 279.762543,293.200348 284.988007,293.205109 
	C290.219238,293.209869 290.720215,288.675110 291.570679,284.794830 
	C291.640625,284.475616 291.789886,284.176544 292.132263,283.570862 
	C292.889160,282.695648 293.552338,282.417328 294.695007,282.673828 
z"/>
<path fill="#F68F97" opacity="1.000000" stroke="none" 
	d="
M226.623581,243.221619 
	C227.093094,246.617874 226.581512,250.043594 227.963959,253.718491 
	C224.828476,255.732147 221.874954,256.405029 218.341949,254.249680 
	C214.721130,252.040756 210.667252,253.445541 206.750565,254.413040 
	C205.239609,254.786285 202.725388,257.066193 201.905151,254.114288 
	C201.209351,251.610214 201.932571,249.106537 205.548325,248.349426 
	C212.499405,246.893921 219.346909,244.943832 226.623581,243.221619 
z"/>
<path fill="#536BAF" opacity="1.000000" stroke="none" 
	d="
M236.481995,281.936249 
	C236.571320,282.928986 236.414047,283.741577 236.136627,284.955933 
	C232.088211,288.473602 228.159943,291.589447 223.882004,294.718506 
	C222.752914,293.708923 222.855316,292.625732 223.157959,291.442993 
	C225.784439,281.179352 223.916214,276.465576 214.626373,270.632202 
	C210.755829,269.472504 207.129181,270.381683 203.211411,269.753906 
	C202.374741,269.254089 202.022446,268.827820 201.714325,267.886230 
	C204.833786,262.308746 210.009079,262.977692 214.824707,263.256104 
	C217.158264,263.391022 219.649551,264.152802 221.686340,266.432648 
	C224.364029,269.719238 226.786057,272.645935 229.455444,275.775269 
	C231.518051,276.324524 232.235931,277.831299 233.259033,279.467377 
	C233.855988,281.122314 235.073120,281.400787 236.481995,281.936249 
z"/>
<path fill="#EDB30A" opacity="1.000000" stroke="none" 
	d="
M198.683914,224.734253 
	C201.688339,225.108246 202.337891,226.701248 202.000076,228.982193 
	C201.617874,231.562866 201.215347,234.140518 200.828949,237.110779 
	C200.778915,238.143875 200.488724,238.737793 200.332825,239.682648 
	C199.700241,243.053848 198.808990,246.118622 198.751068,249.199066 
	C198.649048,254.625763 197.309891,259.024231 191.310303,261.073120 
	C189.187958,259.856995 189.130463,257.849396 189.608231,256.166382 
	C192.057159,247.539185 192.268997,238.500488 194.603912,229.869812 
	C195.184448,227.723938 195.294617,225.102280 198.683914,224.734253 
z"/>
<path fill="#F68F97" opacity="1.000000" stroke="none" 
	d="
M221.606949,228.104095 
	C222.002396,231.444504 222.001801,234.768143 222.002014,238.547668 
	C216.313553,241.327469 210.284836,242.333221 204.331726,243.829834 
	C203.621201,233.663300 204.657913,232.151428 213.480865,230.053619 
	C216.067169,229.438675 218.634750,228.744949 221.606949,228.104095 
z"/>
<path fill="#EBAA7E" opacity="1.000000" stroke="none" 
	d="
M282.430725,252.740952 
	C281.185394,257.052063 280.833557,261.135254 281.840332,265.658630 
	C281.556030,266.372833 281.187225,266.482361 280.526794,266.215088 
	C278.922943,263.218964 279.070374,260.219696 279.001984,257.220490 
	C278.934753,254.271835 280.519318,251.417221 279.583588,248.218140 
	C276.283325,249.258041 273.174438,250.237656 269.690247,251.242401 
	C268.728302,251.543625 268.256348,251.411179 267.921631,250.451752 
	C269.723022,248.809219 271.836426,248.505371 273.810150,247.800613 
	C277.896515,246.341507 282.235199,245.715500 284.452148,240.631744 
	C287.087524,234.588562 295.549225,232.157547 304.271851,233.983536 
	C305.919525,234.784775 306.819672,235.710007 306.198517,237.664215 
	C304.904694,237.872574 303.860107,237.756058 302.429352,237.720322 
	C300.464600,239.052460 298.492035,239.390060 296.376648,240.241669 
	C291.954010,242.035812 288.796417,244.915634 286.212341,248.414658 
	C285.129028,249.881592 284.243347,251.473373 282.430725,252.740952 
z"/>
<path fill="#E88895" opacity="1.000000" stroke="none" 
	d="
M222.213196,266.576843 
	C215.396301,264.820435 208.876358,264.101624 202.158325,267.429932 
	C201.721420,269.263580 200.462341,269.904358 199.024200,270.817352 
	C196.824966,271.517120 195.584335,273.305969 193.327087,273.877869 
	C190.181091,274.267181 190.877533,273.145660 191.821991,271.408386 
	C194.182251,267.066772 197.873230,264.330109 202.328888,262.743866 
	C205.742218,261.528656 209.369583,260.871979 212.939987,260.158081 
	C214.861633,259.773834 216.847916,259.534851 218.033432,261.925812 
	C219.036575,263.948975 220.844589,263.133331 222.425980,262.674927 
	C228.000229,261.059021 233.569260,259.425079 239.537003,257.824280 
	C237.872101,261.653107 233.788254,261.960815 230.350403,263.362274 
	C227.752609,264.421295 225.108124,265.365723 222.213196,266.576843 
z"/>
<path fill="#EBAA7E" opacity="1.000000" stroke="none" 
	d="
M251.221954,296.743469 
	C252.361908,297.498444 252.754456,298.259430 252.854553,299.553589 
	C252.445923,300.428497 252.191757,301.000153 252.209503,301.710602 
	C252.477997,312.463074 247.616135,317.550201 236.082672,318.113434 
	C230.915298,315.877533 228.377197,312.149292 228.080826,306.956268 
	C227.930481,304.321747 228.811325,302.691956 232.179626,304.130798 
	C233.231537,304.724792 233.852448,305.263397 234.457657,305.820648 
	C236.404373,307.613190 238.579651,308.625671 241.179871,307.391235 
	C243.872955,306.112762 244.745651,303.667389 244.864441,300.903107 
	C244.920563,299.597198 244.652145,298.277222 245.219940,296.643921 
	C247.290268,294.290253 249.157455,294.695953 251.221954,296.743469 
z"/>
<path fill="#536BAF" opacity="1.000000" stroke="none" 
	d="
M282.553864,253.019104 
	C283.564423,245.608109 289.075714,242.095779 295.498108,239.116821 
	C295.999695,239.201218 296.156677,239.281265 296.473328,239.537537 
	C297.392120,240.346619 297.698853,239.534882 298.437744,239.058655 
	C299.554474,238.515640 300.398499,238.143906 301.605652,238.792007 
	C303.446869,240.671890 305.458130,242.050751 305.162109,244.775970 
	C304.932587,246.889191 304.008881,248.610901 302.158020,249.652878 
	C300.199097,250.755661 298.140686,250.495544 296.690155,248.867645 
	C294.403229,246.301056 292.914185,247.278290 291.199951,249.479904 
	C289.473694,251.696915 287.495667,253.717865 285.363708,256.040955 
	C284.956482,254.788162 284.914459,253.250259 282.553864,253.019104 
z"/>
<path fill="#39508C" opacity="1.000000" stroke="none" 
	d="
M247.272705,284.565796 
	C247.067490,282.810516 247.990814,281.887695 249.342789,281.476532 
	C256.601013,279.269165 263.876068,277.117065 271.540863,274.954834 
	C268.491089,278.934875 264.876648,282.675140 263.284363,288.018127 
	C262.293427,291.343231 259.541351,291.981934 256.702057,289.506317 
	C254.023453,287.170807 250.913177,285.720825 247.272705,284.565796 
z"/>
<path fill="#DFDEDC" opacity="1.000000" stroke="none" 
	d="
M294.953003,282.521240 
	C294.404114,283.165558 293.771515,283.490204 292.926544,284.106903 
	C292.049408,284.531738 291.316986,284.544342 290.810974,284.148376 
	C286.620178,280.869019 282.919037,281.924042 279.427429,285.317749 
	C278.955139,285.776825 278.353607,286.063232 277.375031,286.127747 
	C277.289520,285.190430 277.338348,284.271667 276.532501,283.799255 
	C275.556427,283.227020 275.114532,284.172424 274.629242,284.804474 
	C271.846466,288.428619 272.849945,295.321960 276.750641,298.935974 
	C277.842957,299.947998 279.097839,300.784546 280.550659,301.889801 
	C281.611542,302.732483 281.717499,303.560455 281.146118,304.825134 
	C273.337463,302.217773 269.566833,297.022919 270.118500,290.369446 
	C270.656219,283.884003 275.546265,278.826691 282.627441,277.390045 
	C287.758423,276.349030 291.653381,278.398132 294.953003,282.521240 
z"/>
<path fill="#DFDEDC" opacity="1.000000" stroke="none" 
	d="
M251.389542,296.742859 
	C249.678604,297.189514 248.126953,295.389221 246.055847,296.780579 
	C245.709671,297.120300 245.549225,297.261414 245.407028,297.244934 
	C234.370163,295.967529 235.637772,296.844818 232.642319,305.920593 
	C231.617706,305.691406 230.707047,304.692322 230.058243,304.840454 
	C228.890472,305.106995 229.313431,306.432526 229.456070,307.327515 
	C230.105316,311.401581 232.088364,314.598358 236.040771,316.857758 
	C236.795975,317.797577 236.793243,318.527893 236.224518,319.581268 
	C227.870743,316.167328 225.067642,309.980499 227.980957,302.227264 
	C231.413223,293.092896 238.320267,289.251099 246.627518,291.906555 
	C248.890198,292.629822 250.991852,293.619446 251.389542,296.742859 
z"/>
<path fill="#FA9C8F" opacity="1.000000" stroke="none" 
	d="
M251.618896,325.160461 
	C252.297882,326.503510 252.594742,327.900269 252.943787,329.652161 
	C246.372345,333.015411 239.233719,334.169861 231.625412,336.521790 
	C232.704926,333.559784 233.494934,331.438629 234.250122,329.305145 
	C234.847748,327.616791 235.925369,327.157684 237.719101,327.406433 
	C242.419876,328.058289 246.916199,327.092346 251.618896,325.160461 
z"/>
<path fill="#88614F" opacity="1.000000" stroke="none" 
	d="
M236.419479,319.975769 
	C236.071320,319.189026 236.164444,318.499756 236.275650,317.459412 
	C238.548828,316.536560 240.922821,316.242096 243.034897,315.336670 
	C247.807877,313.290558 250.713730,309.756409 251.150375,304.327179 
	C251.274124,302.788361 250.025192,300.753387 252.555817,299.778870 
	C256.112061,310.787720 253.695602,317.112335 245.259216,319.665802 
	C242.507370,320.498749 239.677414,320.282623 236.419479,319.975769 
z"/>
<path fill="#88614F" opacity="1.000000" stroke="none" 
	d="
M281.165314,305.440979 
	C280.858490,304.391449 280.860504,303.619598 280.842834,302.462891 
	C289.892181,303.087830 294.969757,298.416809 297.939148,290.118866 
	C301.379578,294.144531 299.997681,300.363556 295.294678,303.316376 
	C291.016113,306.002747 286.340454,306.410461 281.165314,305.440979 
z"/>
<path fill="#39508C" opacity="1.000000" stroke="none" 
	d="
M220.842773,299.882874 
	C219.647491,307.284058 204.861786,310.417389 197.981110,305.847412 
	C195.778336,304.384369 193.637680,302.821594 192.252609,300.069763 
	C191.164139,298.763702 190.892120,297.518372 191.156876,295.813507 
	C193.658981,293.436096 195.265427,295.419739 196.682220,296.748871 
	C199.600266,299.486359 202.883820,301.498627 206.934937,302.945282 
	C207.973160,303.398529 208.678192,303.807709 209.796051,303.785492 
	C210.265869,303.713470 210.453247,303.675781 210.919098,303.571411 
	C211.758102,303.344940 212.270813,303.087738 212.986328,302.557251 
	C214.084991,301.746368 214.978134,301.189972 216.234283,300.655457 
	C216.904907,300.444672 217.291306,300.351379 217.956512,300.171631 
	C218.418655,300.003601 218.604691,299.933197 219.081406,299.774597 
	C219.780457,299.608276 220.188461,299.615021 220.842773,299.882874 
z"/>
<path fill="#D18816" opacity="1.000000" stroke="none" 
	d="
M198.862518,224.655594 
	C197.225296,225.187302 196.793686,226.714890 196.484131,228.148926 
	C194.188919,238.781418 192.326935,249.491379 190.938080,260.720154 
	C190.000565,262.008636 189.042831,262.855560 187.878021,263.853363 
	C186.421280,261.031158 188.181442,258.251770 188.228943,254.908905 
	C186.980591,252.323898 187.529312,250.634445 189.585266,248.930267 
	C190.134369,246.104324 190.598267,243.642853 191.052231,240.802429 
	C191.017242,239.658112 191.001953,238.892349 190.899643,237.745819 
	C190.425079,234.061844 193.348007,231.741135 193.665649,228.282318 
	C194.299896,225.225464 195.674103,223.764938 198.862518,224.655594 
z"/>
<path fill="#FA9C8F" opacity="1.000000" stroke="none" 
	d="
M265.696655,258.301300 
	C267.056458,264.790161 260.845337,264.386139 257.250336,267.010101 
	C256.594330,267.723389 256.244843,268.248474 255.431335,268.760803 
	C254.948471,268.959351 254.745651,269.012421 254.229797,269.063721 
	C253.718887,268.997894 253.520981,268.933807 253.023895,268.781189 
	C248.859131,268.788727 244.753738,270.245575 241.292786,266.456329 
	C249.375259,264.266418 257.696045,262.353271 265.696655,258.301300 
z"/>
<path fill="#17171D" opacity="1.000000" stroke="none" 
	d="
M193.727234,227.886475 
	C193.312149,231.141693 192.715195,234.302734 192.049561,237.859619 
	C191.551315,238.486649 191.098419,238.536011 190.367767,238.186798 
	C186.016891,237.522705 182.320541,239.247437 178.513000,240.231689 
	C176.356125,240.789246 175.169769,240.849121 174.554810,238.306290 
	C173.873260,235.488052 175.940094,235.757294 177.397629,235.434128 
	C180.481247,234.750427 183.577438,233.942978 186.708405,233.699142 
	C190.550201,233.399933 192.422211,231.727066 192.356171,227.458954 
	C192.877853,227.317551 193.211624,227.554916 193.727234,227.886475 
z"/>
<path fill="#E88895" opacity="1.000000" stroke="none" 
	d="
M191.031891,308.465546 
	C190.990112,314.768921 190.832764,320.797882 190.768906,327.270935 
	C191.807022,330.303864 191.974838,332.998199 191.777893,336.143799 
	C191.388947,336.783569 191.171448,336.998291 190.502304,337.134308 
	C187.994308,326.827515 185.994583,316.596405 188.228012,306.085724 
	C189.820694,306.081635 190.115204,307.448059 191.031891,308.465546 
z"/>
<path fill="#C80931" opacity="1.000000" stroke="none" 
	d="
M310.805908,250.390320 
	C314.298676,248.257538 316.151428,250.158768 317.427521,252.662628 
	C318.631866,255.025635 318.608887,257.564209 316.330811,259.420715 
	C313.525543,261.706879 310.838623,261.114838 308.245697,258.380951 
	C305.763550,254.579285 308.899994,252.859848 310.805908,250.390320 
z"/>
<path fill="#C80931" opacity="1.000000" stroke="none" 
	d="
M308.714600,265.448944 
	C312.190125,266.825378 312.430725,269.458649 311.720856,272.135437 
	C311.062592,274.617981 308.939667,275.717712 306.466949,275.981262 
	C303.434418,276.304474 301.962341,274.468536 301.049896,271.553528 
	C302.011780,267.432007 303.555115,264.380280 308.714600,265.448944 
z"/>
<path fill="#DFDEDC" opacity="1.000000" stroke="none" 
	d="
M214.563629,269.388672 
	C225.336288,273.078705 228.691269,282.562286 223.590485,294.340881 
	C223.532333,294.731750 223.362015,294.886688 223.281586,294.969055 
	C222.986557,295.179993 222.771927,295.308594 222.197830,295.329498 
	C220.766495,294.179962 220.577682,292.813568 220.956497,291.536469 
	C222.850464,285.151733 220.310440,280.273651 215.904251,275.957855 
	C215.196198,275.264313 214.635376,274.433380 214.032013,273.177856 
	C213.612015,271.717346 213.718628,270.669647 214.563629,269.388672 
z"/>
<path fill="#C80931" opacity="1.000000" stroke="none" 
	d="
M296.577942,255.714752 
	C298.781677,258.687103 300.186340,261.656372 297.181580,264.316589 
	C294.801361,266.423889 291.945465,267.127319 289.069641,264.134216 
	C287.618561,260.985291 288.012329,258.542511 290.780334,256.284058 
	C291.082336,256.013184 291.004425,256.029724 290.994934,255.991058 
	C292.623596,254.740997 294.377441,254.888184 296.577942,255.714752 
z"/>
<path fill="#E88895" opacity="1.000000" stroke="none" 
	d="
M214.511292,268.911438 
	C214.918686,270.162781 214.979446,271.224487 215.056061,272.684296 
	C214.519119,273.747833 213.738281,274.293365 212.957031,274.163086 
	C207.458054,273.246216 202.714905,275.734863 197.370361,277.406311 
	C196.106903,277.330536 195.307709,277.106018 194.411377,276.179016 
	C194.182358,275.821442 194.115723,275.492737 194.100159,275.325745 
	C194.658981,273.004852 196.057007,271.597717 198.359665,270.560608 
	C199.770569,269.569946 200.979492,268.950592 202.683243,268.754089 
	C206.726501,268.039734 210.432602,266.954559 214.511292,268.911438 
z"/>
<path fill="#E88895" opacity="1.000000" stroke="none" 
	d="
M199.867661,212.267120 
	C200.918228,212.099152 201.598602,212.096909 202.619064,212.114502 
	C206.798981,214.716995 206.332367,218.409332 205.222534,222.477951 
	C202.129761,222.714401 199.362976,222.656281 196.323471,222.301208 
	C194.020599,217.668976 196.350250,214.903702 199.867661,212.267120 
z"/>
<path fill="#17171D" opacity="1.000000" stroke="none" 
	d="
M205.052307,223.109009 
	C204.348557,219.463867 203.800568,216.155212 203.105865,212.490448 
	C203.081726,210.842819 203.533859,209.757721 205.092102,209.087463 
	C207.065430,214.162201 208.899872,219.322739 206.485107,225.132034 
	C205.875046,224.771103 205.541550,224.108322 205.052307,223.109009 
z"/>
<path fill="#D18816" opacity="1.000000" stroke="none" 
	d="
M177.719238,301.750427 
	C178.481918,298.910706 179.246429,296.397064 180.152023,293.617859 
	C182.547241,298.132172 181.339355,302.819244 180.107849,307.823547 
	C178.373596,307.147369 178.681137,305.648285 178.006989,304.336609 
	C177.812225,303.364044 177.766647,302.720276 177.719238,301.750427 
z"/>
<path fill="#DFDEDC" opacity="1.000000" stroke="none" 
	d="
M192.415665,294.571930 
	C192.060913,296.247803 192.056107,297.643524 192.010651,299.456055 
	C188.634827,296.946503 188.513916,292.978790 188.582947,288.624023 
	C189.525986,286.800720 190.673904,286.228607 192.595947,287.186584 
	C194.161362,289.793701 194.187637,292.057068 192.415665,294.571930 
z"/>
<path fill="#E88895" opacity="1.000000" stroke="none" 
	d="
M192.216156,286.923645 
	C190.952530,287.459290 190.110443,287.815765 188.994293,288.213165 
	C188.357880,285.200623 189.435516,282.551544 191.280548,279.803833 
	C192.149368,279.630646 192.701584,279.852570 193.489944,280.572632 
	C194.793564,283.136078 194.462677,285.087585 192.216156,286.923645 
z"/>
<path fill="#17171D" opacity="1.000000" stroke="none" 
	d="
M199.820129,212.069305 
	C198.937607,215.175323 197.637375,218.249252 196.193939,221.663712 
	C195.522629,221.743256 194.994507,221.482269 194.196609,221.102905 
	C193.926834,220.984528 193.785156,220.562485 193.791412,220.339966 
	C193.571472,219.685013 193.485245,219.224243 193.566772,218.381470 
	C194.400772,215.793945 194.244308,213.043655 197.364471,211.902954 
	C198.288574,211.949341 198.845490,211.993271 199.820129,212.069305 
z"/>
<path fill="#EBAA7E" opacity="1.000000" stroke="none" 
	d="
M308.878632,265.370636 
	C305.361664,265.487549 303.137512,267.643890 301.304871,270.972290 
	C300.788635,265.722015 303.442627,263.652496 308.878632,265.370636 
z"/>
<path fill="#39508C" opacity="1.000000" stroke="none" 
	d="
M258.597473,252.957916 
	C259.840576,253.462585 260.695770,253.969177 261.778290,254.677124 
	C258.385620,254.677841 254.957092,255.890121 250.632477,256.918732 
	C252.767670,253.339325 255.871979,253.925674 258.597473,252.957916 
z"/>
<path fill="#EBAA7E" opacity="1.000000" stroke="none" 
	d="
M310.754395,250.097916 
	C311.041473,252.916855 308.032715,254.480118 308.116943,257.699097 
	C304.892517,254.258881 306.858643,251.933716 310.754395,250.097916 
z"/>
<path fill="#DFDEDC" opacity="1.000000" stroke="none" 
	d="
M290.696686,255.961212 
	C290.814362,258.490631 288.665527,260.398438 288.920593,263.418762 
	C285.978027,260.554626 285.728516,257.795929 290.696686,255.961212 
z"/>
<path fill="#102757" opacity="1.000000" stroke="none" 
	d="
M315.695282,273.539520 
	C314.310028,276.649139 314.310028,276.649139 308.710083,277.710754 
	C311.661163,275.882141 313.534302,274.721497 315.695282,273.539520 
z"/>
<path fill="#DFDEDC" opacity="1.000000" stroke="none" 
	d="
M193.756866,281.528229 
	C192.940201,281.151917 192.499084,280.732880 191.796997,279.937683 
	C192.261383,278.476898 192.986740,277.392303 193.947235,276.064575 
	C195.016296,275.864349 195.850235,275.907288 197.094955,276.037842 
	C197.732834,278.762726 196.366226,280.397034 193.756866,281.528229 
z"/>
<path fill="#17171D" opacity="1.000000" stroke="none" 
	d="
M199.182159,270.496033 
	C197.674606,272.160797 196.175583,273.505859 194.380585,275.004822 
	C193.873917,274.882080 193.663208,274.605438 193.243011,274.171997 
	C194.002792,272.109131 195.792892,271.099945 197.781525,269.828186 
	C198.550919,269.655884 198.910446,269.826080 199.182159,270.496033 
z"/>
<path fill="#E88895" opacity="1.000000" stroke="none" 
	d="
M267.584290,249.993866 
	C268.228851,250.329468 268.513672,250.625397 269.056702,251.094421 
	C267.211792,252.288849 265.078003,253.087021 262.391449,252.051575 
	C263.437408,250.351105 265.499329,250.591553 267.584290,249.993866 
z"/>
<path fill="#102757" opacity="1.000000" stroke="none" 
	d="
M306.192200,238.184021 
	C306.572327,236.622162 305.749023,235.679260 304.814270,234.393951 
	C308.348694,235.448135 308.742920,236.393433 306.192200,238.184021 
z"/>
<path fill="#17171D" opacity="1.000000" stroke="none" 
	d="
M301.924866,238.726715 
	C301.074554,239.055740 300.278839,239.078339 299.213409,239.233795 
	C298.688568,240.714096 297.681335,240.497482 296.373657,240.129364 
	C296.004059,239.833939 296.016541,239.457092 295.929626,239.289124 
	C297.513550,237.842987 299.503143,237.676956 301.766785,237.651917 
	C302.021942,238.007507 302.000702,238.213913 301.924866,238.726715 
z"/>
<path fill="#88614F" opacity="1.000000" stroke="none" 
	d="
M190.011749,337.406097 
	C190.247314,337.066345 190.443970,337.077148 190.936081,337.086548 
	C191.737610,337.025848 192.127106,337.219696 192.279327,337.958435 
	C192.378601,339.897186 192.615036,341.508362 192.815491,343.467621 
	C191.262161,342.065491 190.510071,339.960815 190.011749,337.406097 
z"/>
<path fill="#88614F" opacity="1.000000" stroke="none" 
	d="
M296.847900,255.593445 
	C295.268311,255.967300 293.552551,256.015747 291.411102,256.008301 
	C292.528198,252.661469 294.607147,253.857620 296.847900,255.593445 
z"/>
<path fill="#5A6FB3" opacity="1.000000" stroke="none" 
	d="
M221.567429,295.254456 
	C222.148422,295.196930 222.361191,295.189606 222.887573,295.116852 
	C223.491196,296.341095 222.765213,297.333923 222.043060,298.683136 
	C221.727493,299.167419 221.597061,299.350586 221.268707,299.806854 
	C221.070770,300.079956 221.051041,300.062378 221.070190,300.068237 
	C220.508179,300.314575 219.927002,300.555054 219.030640,300.777405 
	C217.658920,298.082916 219.149109,296.566284 221.567429,295.254456 
z"/>
<path fill="#102757" opacity="1.000000" stroke="none" 
	d="
M323.990814,259.828186 
	C323.966553,260.467255 324.001770,260.807037 323.903534,261.102386 
	C323.780182,261.473236 323.321991,262.170868 323.165558,261.389038 
	C322.897736,260.050629 323.091614,258.619873 323.767517,257.221252 
	C323.842041,257.983887 323.916534,258.746552 323.990814,259.828186 
z"/>
<path fill="#102757" opacity="1.000000" stroke="none" 
	d="
M321.471802,252.158173 
	C322.916870,251.133072 322.693176,252.380997 322.837616,253.052444 
	C322.892456,253.307526 322.635590,253.629654 322.520782,253.921234 
	C322.161713,253.415924 321.802643,252.910599 321.471802,252.158173 
z"/>
<path fill="#102757" opacity="1.000000" stroke="none" 
	d="
M318.936096,247.765686 
	C318.444733,247.809875 317.989868,247.502213 317.534973,247.194550 
	C317.693146,247.000122 317.851349,246.805710 318.009521,246.611282 
	C318.330536,246.878784 318.651520,247.146301 318.936096,247.765686 
z"/>
<path fill="#17171D" opacity="1.000000" stroke="none" 
	d="
M200.413254,239.716721 
	C200.283157,239.329651 200.350128,238.677292 200.626678,237.763519 
	C200.760941,238.151871 200.685623,238.801651 200.413254,239.716721 
z"/>
<path fill="#11161F" opacity="1.000000" stroke="none" 
	d="
M179.568970,311.177551 
	C179.263382,310.704712 179.331985,310.674438 179.568970,311.177551 
z"/>
<path fill="#102757" opacity="1.000000" stroke="none" 
	d="
M320.042084,249.120667 
	C320.014282,248.982132 320.412048,249.266998 320.412048,249.266998 
	C320.412048,249.266998 320.069885,249.259201 320.042084,249.120667 
z"/>
<path fill="#102757" opacity="1.000000" stroke="none" 
	d="
M319.989655,249.008484 
	C319.639252,248.966461 319.360199,248.807785 319.021301,248.328949 
	C318.899628,248.117554 318.992950,248.014709 319.044983,247.965576 
	C319.410614,248.039734 319.658661,248.243027 319.927734,248.754211 
	C320.014282,248.982132 319.999115,249.000565 319.989655,249.008484 
z"/>
<path fill="#17171D" opacity="1.000000" stroke="none" 
	d="
M280.132874,323.330505 
	C280.168823,323.141571 280.323059,323.057587 280.737366,323.015381 
	C280.847046,323.398590 280.598267,323.524658 280.132874,323.330505 
z"/>
<path fill="#102757" opacity="1.000000" stroke="none" 
	d="
M219.948883,312.560638 
	C219.782104,312.740082 219.502792,312.641296 219.100449,312.276184 
	C219.256699,312.110687 219.542999,312.201538 219.948883,312.560638 
z"/>
<path fill="#39508C" opacity="1.000000" stroke="none" 
	d="
M221.273239,299.957581 
	C221.105774,299.754822 221.237228,299.474976 221.661530,299.112366 
	C221.822617,299.309326 221.695206,299.592957 221.273239,299.957581 
z"/>
<path fill="#11161F" opacity="1.000000" stroke="none" 
	d="
M292.208984,227.972595 
	C292.154358,227.865158 292.245789,227.714676 292.512085,227.366333 
	C292.757355,227.501236 292.646698,227.754913 292.208984,227.972595 
z"/>
<path fill="#E88895" opacity="1.000000" stroke="none" 
	d="
M187.157135,217.105286 
	C185.480972,220.150909 183.891541,219.417038 182.634171,217.318924 
	C181.727036,215.805206 181.212418,214.056259 180.527191,212.410431 
	C187.728668,210.105377 187.728668,210.105377 187.157135,217.105286 
z"/>
<path fill="#EBAA7E" opacity="1.000000" stroke="none" 
	d="
M262.284729,194.371582 
	C266.379700,194.229767 265.022797,196.904526 264.553650,198.459015 
	C264.073822,200.049072 262.633514,201.283966 260.630341,200.239029 
	C258.943817,199.359283 257.201569,197.946991 257.605927,196.095200 
	C258.006287,194.261765 260.468475,195.111755 262.284729,194.371582 
z"/>
<path fill="#E88895" opacity="1.000000" stroke="none" 
	d="
M197.807220,211.586945 
	C196.647766,213.801071 195.563843,215.696747 194.225128,217.806488 
	C193.810379,218.219116 193.650436,218.417679 193.365570,218.254745 
	C193.656509,215.931580 193.783585,213.960327 193.359726,211.985733 
	C193.115875,210.849747 192.619141,209.578339 194.327225,209.238403 
	C195.727539,208.959747 197.199951,208.197403 198.553589,209.135529 
	C198.735382,209.261536 198.125854,210.529388 197.807220,211.586945 
z"/>
<path fill="#88614F" opacity="1.000000" stroke="none" 
	d="
M193.095749,218.207016 
	C193.240631,217.893265 193.615799,217.898178 193.793060,217.959351 
	C193.993820,218.495239 194.017319,218.969955 193.919250,219.781067 
	C193.797668,220.117462 193.346283,220.059830 193.134689,219.975891 
	C192.932358,219.434875 192.941620,218.977829 193.095749,218.207016 
z"/>
<path fill="#FA9C8F" opacity="1.000000" stroke="none" 
	d="
M239.659866,199.269135 
	C239.624725,199.471252 239.289764,199.637741 238.672958,199.850204 
	C238.714096,199.675293 239.037064,199.454391 239.659866,199.269135 
z"/>
<path fill="#17171D" opacity="1.000000" stroke="none" 
	d="
M189.290161,248.652451 
	C189.316391,250.354813 188.962311,252.143814 188.419464,254.194305 
	C186.117783,254.873779 183.987106,255.219269 181.897629,255.732529 
	C180.203842,256.148560 179.088379,256.126984 178.709503,253.966019 
	C178.385437,252.117813 178.719376,251.179260 180.669083,250.782684 
	C183.439926,250.219070 186.165161,249.431183 189.290161,248.652451 
z"/>
<path fill="#88614F" opacity="1.000000" stroke="none" 
	d="
M190.112137,238.284241 
	C190.520676,238.053696 190.931366,238.163071 191.661469,238.263947 
	C191.815186,238.830261 191.649506,239.405060 191.263062,240.201691 
	C190.732956,239.823715 190.423615,239.223923 190.112137,238.284241 
z"/>
<path fill="#11161F" opacity="1.000000" stroke="none" 
	d="
M253.919830,268.186340 
	C254.864258,267.759003 255.602768,267.480865 256.638733,267.197235 
	C259.359100,268.065704 261.466034,269.237396 261.754517,272.549683 
	C259.241608,275.246490 255.837723,275.760773 252.329407,276.843109 
	C250.219894,277.435883 249.263489,276.923248 250.007629,275.049927 
	C250.782822,273.098419 251.904861,271.284698 252.799988,269.051697 
	C252.724716,268.692627 252.782471,268.707550 252.801620,268.730438 
	C253.165741,268.715088 253.465881,268.581024 253.919830,268.186340 
z"/>
<path fill="#11161F" opacity="1.000000" stroke="none" 
	d="
M269.812378,270.767517 
	C268.680145,270.872925 267.700653,270.660950 267.996979,269.574219 
	C268.342072,268.308899 268.866608,267.021545 269.611603,265.951416 
	C271.047516,263.888733 271.461273,260.097656 274.781372,260.696777 
	C278.211731,261.315765 275.756317,265.005096 276.930389,267.443024 
	C275.234863,270.144592 272.583374,270.149902 269.812378,270.767517 
z"/>
<path fill="#090E16" opacity="1.000000" stroke="none" 
	d="
M232.475906,281.940460 
	C231.360687,280.202209 230.593887,278.486969 229.764954,276.374817 
	C233.539536,271.941467 237.265259,276.212769 241.044922,276.279907 
	C242.219025,276.300781 242.576721,278.195221 241.165161,279.666199 
	C237.971649,279.861298 235.789413,282.394958 232.475906,281.940460 
z"/>
<path fill="#E88895" opacity="1.000000" stroke="none" 
	d="
M252.196533,277.051697 
	C255.022263,275.546051 258.076019,274.271667 261.487885,272.944031 
	C259.740021,276.573883 256.152405,277.078796 252.196533,277.051697 
z"/>
<path fill="#E88895" opacity="1.000000" stroke="none" 
	d="
M232.266525,282.189758 
	C234.812103,281.014465 237.341003,279.580444 240.547791,279.690369 
	C240.023743,281.228210 238.341614,280.995148 236.985458,281.968842 
	C235.287979,282.236755 233.930878,283.401489 232.266525,282.189758 
z"/>
<path fill="#E88895" opacity="1.000000" stroke="none" 
	d="
M269.901917,270.963104 
	C271.423431,269.164307 274.120911,269.217529 276.639526,267.951111 
	C275.944702,271.478943 272.886139,270.734924 269.901917,270.963104 
z"/>
<path fill="#E88895" opacity="1.000000" stroke="none" 
	d="
M280.338135,266.295593 
	C280.640442,266.018250 280.988220,266.021912 281.596924,266.041809 
	C282.346893,266.720367 282.967773,267.731842 282.166199,268.147552 
	C280.852692,268.828766 280.904755,267.221649 280.338135,266.295593 
z"/>
<path fill="#39508C" opacity="1.000000" stroke="none" 
	d="
M192.473221,338.135498 
	C191.969116,337.992096 191.796051,337.698181 191.427261,337.244690 
	C191.077576,334.283386 190.923645,331.481628 190.816040,328.197449 
	C191.948090,330.785431 193.033798,333.855804 194.169693,337.282318 
	C193.748016,337.753967 193.276154,337.869476 192.473221,338.135498 
z"/>
<path fill="#090E16" opacity="1.000000" stroke="none" 
	d="
M277.128540,286.409973 
	C280.999542,278.601837 287.774384,277.664154 292.445679,284.170471 
	C293.166931,286.755005 292.986176,289.037476 291.826782,291.172516 
	C290.017700,294.503937 287.101624,295.902802 283.478424,295.243256 
	C278.907440,294.411255 277.643250,290.836334 277.128540,286.409973 
z"/>
<path fill="#39508C" opacity="1.000000" stroke="none" 
	d="
M199.466141,270.749146 
	C198.936813,270.564178 198.700012,270.312653 198.281097,269.878296 
	C199.153534,269.085571 200.208084,268.475647 201.572296,267.766174 
	C202.151886,267.906952 202.421799,268.147308 202.854691,268.605469 
	C201.931320,269.443054 200.844986,270.062805 199.466141,270.749146 
z"/>
<path fill="#090E16" opacity="1.000000" stroke="none" 
	d="
M232.655975,306.359161 
	C231.146500,301.991669 231.407394,298.141907 235.467270,295.621307 
	C238.883377,293.500366 242.357208,293.198517 245.597244,296.834015 
	C246.332138,299.434235 247.160141,301.656311 246.340240,304.277435 
	C244.437378,310.360596 236.672592,312.413879 232.655975,306.359161 
z"/>
<path fill="#EBAA7E" opacity="1.000000" stroke="none" 
	d="
M295.870117,240.122818 
	C296.733734,239.651138 297.463440,239.468338 298.568420,239.326080 
	C298.487610,240.237076 298.150909,241.204849 297.542542,241.951111 
	C296.905823,242.732132 296.400146,244.564041 295.045776,243.471497 
	C293.966309,242.600739 295.227997,241.398087 295.870117,240.122818 
z"/>
<path fill="#090E16" opacity="1.000000" stroke="none" 
	d="
M221.991440,294.800110 
	C220.837509,296.824463 219.739365,298.444702 218.678345,300.412048 
	C218.715469,300.759216 218.773651,300.894714 218.847351,300.893616 
	C218.746826,301.056641 218.572601,301.220764 218.100647,301.184204 
	C216.660263,301.718353 215.517593,302.453186 214.154480,303.380127 
	C213.513824,304.779633 212.423676,304.395142 211.266983,304.748718 
	C210.965942,304.929596 210.997223,305.000000 210.985016,304.964081 
	C209.884781,305.825073 208.658676,305.470764 207.247223,304.905396 
	C200.772507,303.699463 196.434311,299.878387 192.327820,295.067383 
	C191.533066,292.573364 191.540970,290.275604 191.809036,287.535522 
	C192.293671,285.490143 192.792755,283.877502 193.336578,281.917908 
	C194.650818,279.957184 195.920319,278.343445 197.347778,276.427582 
	C202.558929,272.269409 208.036163,270.707733 214.651947,273.058289 
	C223.427032,278.709229 225.318573,284.488953 221.991440,294.800110 
z"/>
<path fill="#5A6FB3" opacity="1.000000" stroke="none" 
	d="
M207.199081,304.812256 
	C208.100677,304.546539 209.161545,304.598633 210.597626,304.789429 
	C209.837463,306.238708 208.636734,306.379272 207.199081,304.812256 
z"/>
<path fill="#5A6FB3" opacity="1.000000" stroke="none" 
	d="
M211.334351,304.980347 
	C211.313171,303.751678 212.411179,303.976562 213.589935,303.640778 
	C213.633163,304.735840 212.791321,305.072113 211.334351,304.980347 
z"/>
<path fill="#5A6FB3" opacity="1.000000" stroke="none" 
	d="
M217.935699,301.148804 
	C217.978104,300.831848 218.153275,300.680176 218.624756,300.710510 
	C218.784393,301.331329 218.624207,301.722595 217.935699,301.148804 
z"/>
<path fill="#5A6FB3" opacity="1.000000" stroke="none" 
	d="
M253.838593,268.021851 
	C253.873535,268.294769 253.621338,268.552368 253.094955,268.781647 
	C253.064331,268.504395 253.307892,268.255463 253.838593,268.021851 
z"/>
<path fill="#DFDEDC" opacity="1.000000" stroke="none" 
	d="
M210.572098,282.319824 
	C211.359665,284.898895 212.752808,283.521515 213.865738,283.282745 
	C215.900024,282.846313 218.072556,282.352997 218.796219,284.999268 
	C219.459457,287.424500 218.200897,289.250916 215.892380,290.095642 
	C213.461823,290.985016 210.709030,291.251892 212.598404,295.166901 
	C213.276672,296.572357 211.877075,297.870758 210.109253,298.183868 
	C208.412338,298.484406 206.512054,298.891418 205.863342,296.835785 
	C205.041550,294.231689 203.962875,293.432922 201.270050,294.616394 
	C199.461151,295.411407 197.126175,295.670624 196.406204,292.927582 
	C195.774429,290.520569 197.334457,289.029114 199.373566,288.462250 
	C201.799286,287.787964 202.720978,286.906433 201.599915,284.315094 
	C200.081345,280.804871 202.179871,279.165375 205.233231,278.068359 
	C209.012207,276.710693 209.935043,279.014282 210.572098,282.319824 
z"/>
</svg>